<svg width="27" height="30" viewBox="0 0 27 30" fill="none" xmlns="http://www.w3.org/2000/svg">
<path fill-rule="evenodd" clip-rule="evenodd" d="M12.8697 -1.68075e-09C12.8354 0.0157243 12.8017 0.0331312 12.7686 0.0522206L0.856035 6.92994C0.480906 7.14652 0.249817 7.54678 0.249817 7.97994V21.7281L3.88712 19.6281V9.37994L12.8697 4.19385V-1.68075e-09ZM13.8801 4.19392V5.94215e-05C13.9143 0.0157683 13.948 0.0331554 13.981 0.0522209L25.8936 6.92994C26.2687 7.14652 26.4998 7.54678 26.4998 7.97994V21.7116L22.8625 19.6116V9.37994L13.8801 4.19392ZM22.479 20.5568L13.3748 25.8131L4.28497 20.5651L0.669287 22.6526C0.726609 22.7022 0.789024 22.7467 0.856034 22.7854L12.7686 29.6631C13.1437 29.8797 13.6059 29.8797 13.981 29.6631L25.8936 22.7854C25.9651 22.7441 26.0313 22.6962 26.0917 22.6427L22.479 20.5568Z" fill="white"/>
<path d="M13.3751 4.96143L21.8626 9.86169V19.6622L13.3751 24.5625L4.88761 19.6622V9.86169L13.3751 4.96143Z" fill="white"/>
</svg>
